<svg width="18" height="18" viewBox="0 0 18 18" fill="none" xmlns="http://www.w3.org/2000/svg">
<path fill-rule="evenodd" clip-rule="evenodd" d="M10.6177 8.9778L17.5876 2.00769C18.0412 1.55432 18.0412 0.821271 17.5876 0.367895C17.1342 -0.0854815 16.4012 -0.0854815 15.9478 0.367895L8.97771 7.338L2.00782 0.367895C1.55423 -0.0854815 0.8214 -0.0854815 0.368024 0.367895C-0.0855651 0.821271 -0.0855651 1.55432 0.368024 2.00769L7.33791 8.9778L0.368024 15.9479C-0.0855651 16.4013 -0.0855651 17.1343 0.368024 17.5877C0.593968 17.8139 0.891052 17.9275 1.18792 17.9275C1.48479 17.9275 1.78167 17.8139 2.00782 17.5877L8.97771 10.6176L15.9478 17.5877C16.174 17.8139 16.4708 17.9275 16.7677 17.9275C17.0646 17.9275 17.3615 17.8139 17.5876 17.5877C18.0412 17.1343 18.0412 16.4013 17.5876 15.9479L10.6177 8.9778Z" fill="#A4A4A4"/>
</svg>
